<svg width="20" height="20" viewBox="0 0 20 20" fill="none" xmlns="http://www.w3.org/2000/svg">
<path d="M10 1.24995C8.1773 1.2521 6.42987 1.97712 5.14102 3.26597C3.85218 4.55482 3.12716 6.30225 3.12501 8.12495C3.12282 9.61447 3.60937 11.0636 4.51001 12.25C4.51001 12.25 4.69751 12.4968 4.72813 12.5325L10 18.75L15.2744 12.5293C15.3019 12.4962 15.49 12.25 15.49 12.25L15.4906 12.2481C16.3908 11.0622 16.8771 9.61379 16.875 8.12495C16.8729 6.30225 16.1478 4.55482 14.859 3.26597C13.5701 1.97712 11.8227 1.2521 10 1.24995ZM12.25 11.25L10 9.81808L7.75001 11.25L8.12501 8.7037L6.25001 6.98308L8.87501 6.6662L10 4.37495L11.195 6.66683L13.75 6.98308L11.875 8.7037L12.25 11.25Z" fill="white"/>
</svg>
