<svg width="20" height="21" viewBox="0 0 20 21" xmlns="http://www.w3.org/2000/svg">
<path d="M18.4025 2.99995H1.59751C1.43905 3.00013 1.28715 3.06081 1.17513 3.16867C1.06311 3.27654 1.00012 3.42277 1 3.57528V4.73268C1 4.786 1.06008 4.8472 1.10917 4.87195L9.94226 9.72813C9.96488 9.74057 9.99054 9.74702 10.0166 9.7468C10.0432 9.74687 10.0694 9.74004 10.0923 9.727L18.6585 4.87668C18.7066 4.8508 18.8343 4.7824 18.8822 4.7509C18.9402 4.71288 19 4.67845 19 4.61028V3.57505C18.9998 3.42258 18.9368 3.27641 18.8248 3.16859C18.7128 3.06078 18.5609 3.00013 18.4025 2.99995Z"/>
<path d="M18.9254 6.47776C18.9024 6.46513 18.8763 6.45857 18.8498 6.45873C18.8234 6.45889 18.7974 6.46576 18.7746 6.47866L13.927 9.22388C13.9077 9.23471 13.8911 9.2496 13.8786 9.26742C13.8661 9.28524 13.8579 9.30555 13.8546 9.32684C13.8514 9.34813 13.8531 9.36985 13.8598 9.3904C13.8664 9.41094 13.8778 9.42977 13.8931 9.44551L18.7414 14.4758C18.7553 14.4904 18.7722 14.5019 18.7909 14.5098C18.8097 14.5177 18.83 14.5218 18.8506 14.5217C18.8901 14.5217 18.9281 14.5065 18.9561 14.4796C18.9841 14.4526 18.9999 14.4161 18.9999 14.378V6.60263C19 6.57734 18.9932 6.55247 18.9801 6.53054C18.967 6.50861 18.9481 6.4904 18.9254 6.47776Z"/>
<path d="M12.53 10.1456C12.507 10.1215 12.4761 10.1057 12.4425 10.1009C12.4088 10.0961 12.3745 10.1025 12.3451 10.1191L10.4021 11.2196C10.2882 11.2829 10.1592 11.3166 10.0278 11.3174C9.89627 11.3183 9.76683 11.2862 9.65214 11.2243L7.94214 10.284C7.91453 10.2689 7.88264 10.2626 7.85108 10.2661C7.81951 10.2696 7.78992 10.2826 7.76658 10.3034L1.27303 16.1007C1.256 16.116 1.24293 16.135 1.23486 16.156C1.22678 16.177 1.22392 16.1996 1.22651 16.2219C1.2291 16.2442 1.23706 16.2656 1.24977 16.2844C1.26247 16.3032 1.27956 16.3189 1.29968 16.3302C1.40066 16.3874 1.49814 16.4146 1.59726 16.4146H18.2304C18.2595 16.4146 18.288 16.4065 18.3123 16.3911C18.3366 16.3757 18.3557 16.3537 18.3672 16.328C18.3788 16.3024 18.3824 16.274 18.3775 16.2465C18.3726 16.2189 18.3594 16.1933 18.3396 16.1729L12.53 10.1456Z"/>
<path d="M6.33782 9.6177C6.35502 9.6024 6.36824 9.58341 6.37641 9.56229C6.38458 9.54116 6.38747 9.51847 6.38486 9.49607C6.38224 9.47367 6.37418 9.45217 6.36134 9.43331C6.3485 9.41446 6.33124 9.39877 6.31094 9.38753L1.22278 6.59033C1.20007 6.57792 1.17438 6.57146 1.14827 6.57161C1.12216 6.57176 1.09654 6.5785 1.07399 6.59117C1.05143 6.60383 1.03273 6.62198 1.01975 6.64378C1.00676 6.66559 0.999954 6.69029 1 6.71543V14.0549C0.999838 14.083 1.00822 14.1104 1.0241 14.1339C1.03999 14.1574 1.06268 14.1759 1.08938 14.1871C1.11607 14.1983 1.1456 14.2017 1.17429 14.197C1.20299 14.1922 1.2296 14.1794 1.25083 14.1602L6.33782 9.6177Z"/>
</svg>
