<svg width="60" height="60" viewBox="0 0 60 60" fill="none" xmlns="http://www.w3.org/2000/svg">
<g id="&#208;&#148;&#208;&#181;&#208;&#189;&#209;&#140;&#208;&#179;&#208;&#184;" clip-path="url(#clip0_4837_409)">
<g id="Group">
<g id="Group_2">
<path id="Vector" d="M40.0727 38.4794C38.6511 38.4794 37.4946 37.4784 37.4946 36.2481C37.4946 35.0176 38.6511 34.0166 40.0727 34.0166C41.4943 34.0166 42.6509 35.0176 42.6509 36.2481C42.6509 36.8952 43.1756 37.42 43.8227 37.42C44.4698 37.42 44.9946 36.8952 44.9946 36.2481C44.9946 34.1006 43.3945 32.295 41.2446 31.8049V31.1954C41.2446 30.5483 40.7199 30.0236 40.0727 30.0236C39.4256 30.0236 38.9009 30.5483 38.9009 31.1954V31.8049C36.751 32.295 35.1509 34.1006 35.1509 36.2481C35.1509 38.7708 37.3588 40.8232 40.0727 40.8232C41.4943 40.8232 42.6509 41.8242 42.6509 43.0547C42.6509 44.2851 41.4943 45.2862 40.0727 45.2862C38.6511 45.2862 37.4946 44.2851 37.4946 43.0547C37.4946 42.4076 36.9699 41.8828 36.3228 41.8828C35.6756 41.8828 35.1509 42.4076 35.1509 43.0547C35.1509 45.2021 36.751 47.0078 38.9009 47.4978V48.0041C38.9009 48.6512 39.4256 49.176 40.0727 49.176C40.7199 49.176 41.2446 48.6512 41.2446 48.0041V47.4978C43.3945 47.0078 44.9946 45.2021 44.9946 43.0547C44.9946 40.5319 42.7867 38.4794 40.0727 38.4794Z" fill="url(#paint0_linear_4837_409)"/>
</g>
</g>
<g id="Group_3">
<g id="Group_4">
<path id="Vector_2" d="M52.9079 31.5088C51.3771 29.1235 49.2204 27.2148 46.6709 25.9892C46.0875 25.7087 45.3873 25.9543 45.107 26.5376C44.8265 27.121 45.072 27.8211 45.6554 28.1015C50.0981 30.2371 52.9686 34.8003 52.9686 39.7266C52.9686 41.8346 52.449 43.9251 51.4661 45.7724C51.1621 46.3437 51.3788 47.0534 51.9502 47.3574C52.1255 47.4507 52.314 47.4949 52.4996 47.4949C52.9189 47.4949 53.3245 47.2692 53.5352 46.8733C54.6978 44.6884 55.3123 42.2171 55.3123 39.7266C55.3123 36.8016 54.4809 33.9599 52.9079 31.5088Z" fill="#2B7AF1"/>
</g>
</g>
<g id="Group_5">
<g id="Group_6">
<path id="Vector_3" d="M41.9148 24.4924L41.8359 24.4923C41.1888 24.4923 40.6641 25.017 40.6641 25.6642C40.6641 26.3114 41.1888 26.8361 41.8359 26.8361L41.9038 26.8362C41.9057 26.8362 41.9074 26.8362 41.9094 26.8362C42.5541 26.8362 43.0781 26.3152 43.0812 25.6698C43.0841 25.0226 42.5619 24.4955 41.9148 24.4924Z" fill="url(#paint1_linear_4837_409)"/>
</g>
</g>
<g id="Group_7">
<g id="Group_8">
<path id="Vector_4" d="M34.5008 51.3517C30.0582 49.2159 27.1877 44.6528 27.1877 39.7266C27.1877 37.6186 27.7073 35.5281 28.6902 33.6808C28.9942 33.1095 28.7775 32.3998 28.2061 32.0958C27.6349 31.7918 26.925 32.0085 26.6211 32.5799C25.4585 34.7649 24.844 37.2361 24.844 39.7266C24.844 42.6516 25.6754 45.4931 27.2484 47.9443C28.7793 50.3297 30.936 52.2384 33.4854 53.4641C33.6491 53.5428 33.8221 53.58 33.9923 53.58C34.4287 53.58 34.8476 53.3352 35.0494 52.9156C35.3296 52.3323 35.0842 51.6321 34.5008 51.3517Z" fill="#2B7AF1"/>
</g>
</g>
<g id="Group_9">
<g id="Group_10">
<path id="Vector_5" d="M38.3205 52.6172L38.2526 52.6169C37.6024 52.6158 37.0784 53.136 37.0755 53.7833C37.0724 54.4305 37.5948 54.9577 38.2419 54.9607L38.3205 54.9609C38.9676 54.9609 39.4923 54.4362 39.4923 53.7891C39.4923 53.1419 38.9676 52.6172 38.3205 52.6172Z" fill="url(#paint2_linear_4837_409)"/>
</g>
</g>
<g id="Group_11">
<g id="Group_12">
<path id="Vector_6" d="M45.3994 20.5275C45.2568 20.1876 45.0821 19.8673 44.8787 19.5703H47.9296C50.9019 19.5703 53.3202 17.152 53.3202 14.1797C53.3202 11.2073 50.9019 8.78905 47.9296 8.78905H38.5452C39.1418 7.92163 39.4921 6.87221 39.4921 5.74218C39.4921 2.76984 37.0738 0.351562 34.1015 0.351562H5.39061C2.41828 0.351562 0 2.76984 0 5.74218C0 8.71452 2.41828 11.1328 5.39061 11.1328H14.775C14.1784 12.0002 13.8281 13.0496 13.8281 14.1797C13.8281 15.3097 14.1783 16.3591 14.775 17.2265H11.7187C8.74639 17.2265 6.32811 19.6448 6.32811 22.6171C6.32811 24.3242 7.12663 25.8475 8.36893 26.8359C7.12663 27.8242 6.32811 29.3476 6.32811 31.0546C6.32811 32.7617 7.12663 34.285 8.36893 35.2734C7.12663 36.2617 6.32811 37.785 6.32811 39.4921C6.32811 41.1992 7.12663 42.7225 8.36893 43.7109C7.12663 44.6992 6.32811 46.2225 6.32811 47.9296C6.32811 50.9019 8.74639 53.3202 11.7187 53.3202H25.5292C29.1674 57.2117 34.3431 59.6484 40.0782 59.6484C51.0631 59.6484 60 50.7115 60 39.7266C60 30.584 53.809 22.8612 45.3994 20.5275ZM47.9296 11.1328C49.6097 11.1328 50.9765 12.4997 50.9765 14.1797C50.9765 15.8597 49.6097 17.2265 47.9296 17.2265H40.4296H19.2187C17.5386 17.2265 16.1718 15.8597 16.1718 14.1797C16.1718 12.4997 17.5386 11.1328 19.2187 11.1328H47.9296ZM5.39061 8.78905C3.7105 8.78905 2.34375 7.42217 2.34375 5.74218C2.34375 4.06218 3.7105 2.69531 5.39061 2.69531H34.1015C35.7816 2.69531 37.1484 4.06218 37.1484 5.74218C37.1484 7.42217 35.7816 8.78905 34.1015 8.78905H5.39061ZM11.7187 19.5703H40.4296C40.9016 19.5703 41.3536 19.68 41.7591 19.8764C41.2048 19.8298 40.6444 19.8048 40.0782 19.8048C34.5768 19.8048 29.5893 22.0464 25.9807 25.664H11.7187C10.0387 25.664 8.67186 24.2971 8.67186 22.6171C8.67186 20.9372 10.0387 19.5703 11.7187 19.5703ZM11.7187 28.0078H23.9783C22.648 29.8304 21.6194 31.8861 20.9662 34.1015H11.7187C10.0386 34.1015 8.67186 32.7347 8.67186 31.0546C8.67186 29.3746 10.0386 28.0078 11.7187 28.0078ZM11.7187 36.4452H20.4281C20.2503 37.5132 20.1563 38.609 20.1563 39.7266C20.1563 40.6812 20.2254 41.6199 20.3558 42.539H11.7187C10.0386 42.539 8.67186 41.1722 8.67186 39.4921C8.67186 37.812 10.0386 36.4452 11.7187 36.4452ZM11.7187 50.9765C10.0386 50.9765 8.67186 49.6097 8.67186 47.9296C8.67186 46.2495 10.0386 44.8827 11.7187 44.8827H20.8343C21.4256 47.0874 22.3862 49.142 23.6459 50.9765H11.7187ZM40.0782 57.3047C30.3856 57.3047 22.5001 49.4192 22.5001 39.7266C22.5001 30.034 30.3856 22.1485 40.0782 22.1485C49.7707 22.1485 57.6563 30.034 57.6563 39.7266C57.6563 49.4192 49.7707 57.3047 40.0782 57.3047Z" fill="#2A79EE"/>
</g>
</g>
</g>
<defs>
<linearGradient id="paint0_linear_4837_409" x1="35.1509" y1="39.5998" x2="44.9966" y2="39.5793" gradientUnits="userSpaceOnUse">
<stop stop-color="#FF7A00"/>
<stop offset="1" stop-color="#FFB039"/>
</linearGradient>
<linearGradient id="paint1_linear_4837_409" x1="40.6641" y1="25.6642" x2="43.0816" y2="25.6542" gradientUnits="userSpaceOnUse">
<stop stop-color="#FF7A00"/>
<stop offset="1" stop-color="#FFB039"/>
</linearGradient>
<linearGradient id="paint2_linear_4837_409" x1="37.0754" y1="53.7889" x2="39.4928" y2="53.7789" gradientUnits="userSpaceOnUse">
<stop stop-color="#FF7A00"/>
<stop offset="1" stop-color="#FFB039"/>
</linearGradient>
<clipPath id="clip0_4837_409">
<rect width="60" height="60" fill="white"/>
</clipPath>
</defs>
</svg>
