<svg width="50" height="51" viewBox="0 0 50 51" fill="none" xmlns="http://www.w3.org/2000/svg">
<g id="review 2" clip-path="url(#clip0_4876_675)">
<g id="Group">
<g id="Group_2">
<path id="Vector" d="M35.0323 16.9149C33.5738 16.9149 32.1468 17.1225 30.7711 17.5313C30.8255 17.0054 30.8537 16.4717 30.8537 15.9315C30.8537 13.4599 30.2864 11.0983 29.1678 8.91247C28.9219 8.43239 28.3336 8.24245 27.8538 8.48806C27.3738 8.73386 27.1837 9.32205 27.4293 9.80212C28.4057 11.7098 28.9007 13.7721 28.9007 15.9314C28.9007 23.3611 22.8563 29.4055 15.4267 29.4055C13.6947 29.4055 12.0077 29.0812 10.4131 28.4412C10.0503 28.296 9.63556 28.3807 9.3591 28.657L7.22521 30.7911V27.0934C7.22521 26.8016 7.09464 26.525 6.86935 26.3395C3.74483 23.7673 1.95274 19.9737 1.95274 15.9314C1.95274 8.50173 7.99718 2.45738 15.4268 2.45738C17.2201 2.45738 18.9611 2.80367 20.6016 3.48668C21.1309 3.70699 21.6517 3.96432 22.1495 4.25153C22.6164 4.52086 23.2135 4.3608 23.4831 3.89371C23.7525 3.42672 23.5923 2.82955 23.1252 2.56012C22.5551 2.23131 21.9585 1.93639 21.3522 1.68394C19.4727 0.901423 17.4791 0.504547 15.4269 0.504547C6.92052 0.504547 0 7.42507 0 15.9314C0 20.4038 1.91553 24.6101 5.27247 27.5451V33.1483C5.27247 33.5432 5.51046 33.8992 5.87521 34.0503C5.99601 34.1003 6.12286 34.1246 6.24864 34.1246C6.50275 34.1246 6.75245 34.0254 6.93927 33.8387L10.2948 30.4831C11.9402 31.0641 13.6633 31.3582 15.4269 31.3582C17.062 31.3582 18.6381 31.1016 20.1181 30.628C20.0832 31.0452 20.0647 31.464 20.0647 31.8824C20.0647 34.1682 20.5667 36.3625 21.5569 38.4048C21.7257 38.7527 22.0737 38.9554 22.4361 38.9554C22.579 38.9554 22.7242 38.924 22.8614 38.8574C23.3465 38.6221 23.5492 38.038 23.3139 37.5528C22.4536 35.7784 22.0173 33.8706 22.0173 31.8825C22.0173 31.1842 22.0743 30.4849 22.1851 29.7969C26.2104 27.8269 29.257 24.1551 30.3812 19.7244C31.8635 19.1562 33.4256 18.8677 35.0322 18.8677C42.2087 18.8677 48.0472 24.7062 48.0472 31.8825C48.0472 35.8692 46.2557 39.5821 43.1322 42.0695C42.8995 42.2546 42.764 42.5358 42.764 42.8332V47.162L40.0895 44.4874C39.829 44.227 39.4443 44.1353 39.0946 44.2501C37.7861 44.6796 36.4193 44.8975 35.0322 44.8975C33.0478 44.8975 31.143 44.4627 29.3711 43.6052C28.8859 43.3705 28.3018 43.5734 28.0668 44.0588C27.832 44.5442 28.0351 45.1281 28.5205 45.363C30.5598 46.3498 32.7507 46.8501 35.0322 46.8501C36.4228 46.8501 37.7964 46.6595 39.1235 46.2828L43.0501 50.2093C43.2369 50.3962 43.4866 50.4953 43.7407 50.4953C43.8665 50.4953 43.9934 50.471 44.1141 50.421C44.4789 50.2698 44.7169 49.9138 44.7169 49.5189V43.2943C48.0807 40.4404 49.9999 36.3082 49.9999 31.8824C50.0001 23.6294 43.2855 16.9149 35.0323 16.9149Z" fill="#2B7AF1"/>
</g>
</g>
<g id="Group_3">
<g id="Group_4">
<path id="Vector_2" d="M25.9687 41.2226C25.9387 41.1937 25.909 41.1646 25.8794 41.1352C25.4966 40.7556 24.8783 40.7584 24.4987 41.1413C24.1191 41.5242 24.1219 42.1425 24.5048 42.5221C24.5393 42.5563 24.5739 42.5901 24.6087 42.6238C24.7984 42.808 25.0436 42.8995 25.2886 42.8995C25.5434 42.8995 25.798 42.8003 25.9894 42.6032C26.3649 42.2162 26.3556 41.5981 25.9687 41.2226Z" fill="url(#paint0_linear_4876_675)"/>
</g>
</g>
<g id="Group_5">
<g id="Group_6">
<path id="Vector_3" d="M26.7477 5.4513C26.3238 4.99886 25.7083 5.06566 25.3581 5.39183C25.008 5.71771 24.8974 6.32699 25.3184 6.78216C25.3214 6.78529 25.3244 6.78851 25.3273 6.79163C25.5381 7.01341 25.7944 7.10843 26.0421 7.10843C26.2964 7.10843 26.5411 7.00814 26.7175 6.84193C27.0653 6.51361 27.1718 5.90365 26.7477 5.4513Z" fill="url(#paint1_linear_4876_675)"/>
</g>
</g>
<g id="Group_7">
<g id="Group_8">
<path id="Vector_4" d="M11.1796 12.5622C10.998 12.3805 10.747 12.276 10.4893 12.276C10.2325 12.276 9.98062 12.3805 9.79898 12.5622C9.61743 12.7437 9.51294 12.9956 9.51294 13.2524C9.51294 13.5092 9.61743 13.7611 9.79898 13.9427C9.98062 14.1244 10.2325 14.2288 10.4893 14.2288C10.7461 14.2288 10.998 14.1244 11.1796 13.9427C11.3623 13.7611 11.4657 13.5092 11.4657 13.2524C11.4657 12.9956 11.3622 12.7436 11.1796 12.5622Z" fill="url(#paint2_linear_4876_675)"/>
</g>
</g>
<g id="Group_9">
<g id="Group_10">
<path id="Vector_5" d="M21.0546 12.5622C20.8731 12.3805 20.6212 12.276 20.3643 12.276C20.1065 12.276 19.8546 12.3805 19.6731 12.5622C19.4915 12.7437 19.3879 12.9956 19.3879 13.2524C19.3879 13.5092 19.4916 13.7611 19.6731 13.9427C19.8556 14.1244 20.1075 14.2288 20.3643 14.2288C20.6211 14.2288 20.872 14.1244 21.0546 13.9427C21.2363 13.7611 21.3407 13.5092 21.3407 13.2524C21.3407 12.9956 21.2364 12.7436 21.0546 12.5622Z" fill="url(#paint3_linear_4876_675)"/>
</g>
</g>
<g id="Group_11">
<g id="Group_12">
<path id="Vector_6" d="M19.1655 18.3299C18.6442 18.1904 18.1093 18.5003 17.9701 19.0212C17.6627 20.1723 16.6169 20.9762 15.427 20.9762C14.237 20.9762 13.1913 20.1723 12.8838 19.0212C12.7447 18.5002 12.2096 18.1903 11.6885 18.3299C11.1675 18.4692 10.858 19.0042 10.9972 19.5252C11.5326 21.5293 13.3541 22.9289 15.427 22.9289C17.4997 22.9289 19.3213 21.5293 19.8568 19.5252C19.9959 19.0041 19.6865 18.4691 19.1655 18.3299Z" fill="#2B7AF1"/>
</g>
</g>
<g id="Group_13">
<g id="Group_14">
<path id="Vector_7" d="M30.9493 28.5805C30.7678 28.3989 30.5169 28.2945 30.2591 28.2945C30.0022 28.2945 29.7504 28.3989 29.5687 28.5805C29.3871 28.7623 29.2827 29.014 29.2827 29.2709C29.2827 29.5287 29.3871 29.7796 29.5687 29.9611C29.7504 30.1427 30.0022 30.2472 30.2591 30.2472C30.5169 30.2472 30.7678 30.1427 30.9493 29.9611C31.1319 29.7796 31.2355 29.5277 31.2355 29.2709C31.2355 29.014 31.1319 28.7622 30.9493 28.5805Z" fill="url(#paint4_linear_4876_675)"/>
</g>
</g>
<g id="Group_15">
<g id="Group_16">
<path id="Vector_8" d="M40.4956 28.5807C40.3139 28.399 40.0629 28.2946 39.8052 28.2946C39.5484 28.2946 39.2965 28.399 39.1149 28.5807C38.9334 28.7623 38.8289 29.0142 38.8289 29.271C38.8289 29.5288 38.9334 29.7797 39.1149 29.9612C39.2965 30.1429 39.5484 30.2474 39.8052 30.2474C40.0629 30.2473 40.3139 30.1428 40.4956 29.9612C40.6771 29.7797 40.7816 29.5278 40.7816 29.271C40.7816 29.0142 40.6772 28.7623 40.4956 28.5807Z" fill="url(#paint5_linear_4876_675)"/>
</g>
</g>
<g id="Group_17">
<g id="Group_18">
<path id="Vector_9" d="M30.7183 35.3441C31.2395 37.2955 33.0136 38.6586 35.032 38.6586C37.0505 38.6586 38.8244 37.2956 39.3458 35.3441C39.4851 34.8231 39.1755 34.288 38.6545 34.1488C38.1331 34.0091 37.5984 34.3192 37.4592 34.8401C37.1657 35.9386 36.1675 36.7058 35.0321 36.7058C33.8965 36.7058 32.8983 35.9385 32.605 34.8401C32.4884 34.4035 32.0937 34.1154 31.6623 34.1154C31.5789 34.1154 31.494 34.1261 31.4096 34.1488C30.8886 34.288 30.5791 34.8231 30.7183 35.3441Z" fill="#2B7AF1"/>
</g>
</g>
</g>
<defs>
<linearGradient id="paint0_linear_4876_675" x1="24.2158" y1="41.8759" x2="26.2654" y2="41.8676" gradientUnits="userSpaceOnUse">
<stop stop-color="#FF7A00"/>
<stop offset="1" stop-color="#FFB039"/>
</linearGradient>
<linearGradient id="paint1_linear_4876_675" x1="25.0464" y1="6.119" x2="27.0247" y2="6.11103" gradientUnits="userSpaceOnUse">
<stop stop-color="#FF7A00"/>
<stop offset="1" stop-color="#FFB039"/>
</linearGradient>
<linearGradient id="paint2_linear_4876_675" x1="9.51294" y1="13.2524" x2="11.466" y2="13.2445" gradientUnits="userSpaceOnUse">
<stop stop-color="#FF7A00"/>
<stop offset="1" stop-color="#FFB039"/>
</linearGradient>
<linearGradient id="paint3_linear_4876_675" x1="19.3879" y1="13.2524" x2="21.341" y2="13.2445" gradientUnits="userSpaceOnUse">
<stop stop-color="#FF7A00"/>
<stop offset="1" stop-color="#FFB039"/>
</linearGradient>
<linearGradient id="paint4_linear_4876_675" x1="29.2827" y1="29.2709" x2="31.2358" y2="29.263" gradientUnits="userSpaceOnUse">
<stop stop-color="#FF7A00"/>
<stop offset="1" stop-color="#FFB039"/>
</linearGradient>
<linearGradient id="paint5_linear_4876_675" x1="38.8289" y1="29.271" x2="40.782" y2="29.2631" gradientUnits="userSpaceOnUse">
<stop stop-color="#FF7A00"/>
<stop offset="1" stop-color="#FFB039"/>
</linearGradient>
<clipPath id="clip0_4876_675">
<rect width="50" height="50" fill="white" transform="translate(0 0.5)"/>
</clipPath>
</defs>
</svg>
