<svg width="8" height="13" viewBox="0 0 8 13" fill="none" xmlns="http://www.w3.org/2000/svg">
<path d="M7.09347 1.55838C7.14979 1.49887 7.19381 1.42886 7.22303 1.35235C7.25226 1.27585 7.2661 1.19434 7.26379 1.11249C7.26147 1.03064 7.24303 0.950048 7.20952 0.875314C7.17601 0.80058 7.1281 0.733169 7.0685 0.676929C7.00891 0.620689 6.93881 0.576722 6.8622 0.547538C6.78559 0.518355 6.70398 0.504526 6.62202 0.506841C6.54006 0.509157 6.45935 0.527571 6.38452 0.561033C6.30969 0.594495 6.24219 0.64235 6.18587 0.701864L0.880096 6.31226C0.770524 6.428 0.709473 6.58124 0.709473 6.74052C0.709473 6.8998 0.770524 7.05303 0.880096 7.16878L6.18587 12.7798C6.24181 12.8406 6.3093 12.8897 6.38441 12.9243C6.45952 12.9588 6.54075 12.9781 6.62339 12.9811C6.70604 12.984 6.78844 12.9705 6.86581 12.9413C6.94319 12.9122 7.01399 12.868 7.07412 12.8113C7.13424 12.7546 7.18249 12.6865 7.21605 12.6111C7.24961 12.5356 7.26782 12.4542 7.26962 12.3716C7.27142 12.2891 7.25678 12.207 7.22654 12.1301C7.1963 12.0533 7.15107 11.9832 7.09347 11.9239L2.19218 6.74052L7.09347 1.55838Z" fill="white"/>
</svg>
