<svg width="60" height="60" viewBox="0 0 60 60" fill="none" xmlns="http://www.w3.org/2000/svg">
<g id="&#208;&#145;&#208;&#181;&#208;&#183;&#208;&#190;&#208;&#191;&#208;&#176;&#209;&#129;&#208;&#189;&#208;&#190;&#209;&#129;&#209;&#130;&#209;&#140;" clip-path="url(#clip0_4837_607)">
<g id="Group">
<g id="Group_2">
<g id="Group_3">
<path id="Vector" d="M54.6556 10.3607C46.4003 8.09873 38.0966 4.57666 30.6419 0.175341C30.246 -0.0584472 29.7546 -0.0584472 29.3587 0.175341C21.6891 4.70311 13.834 8.03462 5.34436 10.3607C4.79593 10.5108 4.41577 11.0093 4.41577 11.578V24.474C4.41577 37.754 10.5422 46.5445 15.6818 51.5801C21.2149 57.0018 27.6602 60 30.0003 60C32.3402 60 38.7855 57.0018 44.3186 51.5801C49.4581 46.5446 55.5842 37.7541 55.5842 24.474V11.5779C55.5842 11.0093 55.204 10.5108 54.6556 10.3607ZM53.06 24.4739C53.06 36.8773 47.3458 45.0799 42.5519 49.777C37.1108 55.1084 31.2933 57.4756 30.0003 57.4756C28.7074 57.4756 22.8895 55.1084 17.4483 49.777C12.6545 45.0798 6.9401 36.8773 6.9401 24.4739V12.536C15.0586 10.2309 22.6193 7.01404 30.0006 2.72463C37.1975 6.90025 45.1354 10.2771 53.06 12.5356V24.4739Z" fill="#2A79EE"/>
<path id="Vector_2" d="M18.813 12.3949C18.5576 11.7462 17.8248 11.4276 17.1761 11.6832C14.9214 12.5716 12.6072 13.3893 10.2977 14.1138C9.77145 14.279 9.41333 14.7665 9.41333 15.318V20.1919C9.41333 20.889 9.97852 21.454 10.6754 21.454C11.3724 21.454 11.9375 20.889 11.9375 20.1919V16.2404C14.0093 15.5701 16.0788 14.8286 18.1014 14.0316C18.75 13.7763 19.0686 13.0435 18.813 12.3949Z" fill="#2B7AF1"/>
<path id="Vector_3" d="M21.2105 12.6343C21.3799 12.6343 21.5518 12.6002 21.7167 12.5282L21.7399 12.5181C22.3784 12.2383 22.666 11.495 22.3862 10.8566C22.1061 10.2181 21.3586 9.92922 20.7207 10.2088L20.7003 10.2176C20.0614 10.4966 19.7729 11.2394 20.0519 11.878C20.259 12.3522 20.7236 12.6343 21.2105 12.6343Z" fill="#FCC226"/>
<path id="Vector_4" d="M45.0375 40.6972C44.4543 40.316 43.6722 40.48 43.2905 41.0634C42.2505 42.6553 41.0303 44.1797 39.6634 45.5938C38.5394 46.7565 37.3213 47.8403 36.0432 48.8147C35.489 49.2373 35.3824 50.0292 35.8048 50.5836C36.0534 50.9093 36.4292 51.0806 36.8093 51.0806C37.0763 51.0806 37.3452 50.9964 37.5738 50.822C38.9525 49.7707 40.2661 48.602 41.4781 47.3483C42.9559 45.8197 44.2766 44.1697 45.4038 42.4441C45.7852 41.8605 45.621 41.0784 45.0375 40.6972Z" fill="#2B7AF1"/>
<path id="Vector_5" d="M33.1124 50.7941L33.04 50.8367C32.4368 51.1861 32.2307 51.9581 32.5799 52.5613C32.8139 52.9655 33.2375 53.1912 33.6734 53.1912C33.8878 53.1912 34.1055 53.1365 34.3044 53.0211L34.388 52.972C34.9895 52.6197 35.1915 51.8466 34.8393 51.2451C34.4868 50.6438 33.7136 50.4421 33.1124 50.7941Z" fill="#FCC226"/>
<path id="Vector_6" d="M21.3971 27.4241C20.6221 26.649 19.5915 26.2224 18.4953 26.2224C17.3991 26.2224 16.3683 26.6491 15.593 27.4241C13.9931 29.0244 13.9931 31.6283 15.593 33.2285L23.0457 40.6809C23.8208 41.4557 24.8514 41.8824 25.9477 41.8824C27.044 41.8824 28.0747 41.4557 28.8498 40.6807L44.4077 25.1226C46.0076 23.522 46.0076 20.9184 44.4075 19.3187C43.6324 18.5436 42.6018 18.1171 41.5054 18.1171C40.4091 18.1171 39.3784 18.5437 38.6032 19.3187L25.9476 31.9743L21.3971 27.4241ZM40.3882 21.1037C40.6865 20.8055 41.0834 20.6413 41.5055 20.6413C41.9278 20.6413 42.3244 20.8055 42.6229 21.1037C43.2387 21.7195 43.2387 22.7219 42.6226 23.338L27.065 38.8958C26.7667 39.194 26.3698 39.3582 25.9477 39.3582C25.5256 39.3582 25.1287 39.194 24.8303 38.8958L17.3779 31.4436C16.7619 30.8275 16.7619 29.8251 17.3777 29.2093C17.676 28.9111 18.073 28.7467 18.4952 28.7467C18.9174 28.7467 19.3141 28.9108 19.6123 29.2091L25.0551 34.652C25.2919 34.8886 25.6128 35.0216 25.9476 35.0216C26.2824 35.0216 26.6032 34.8887 26.8398 34.652L40.3882 21.1037Z" fill="#FCC226"/>
</g>
</g>
</g>
</g>
<defs>
<clipPath id="clip0_4837_607">
<rect width="60" height="60" fill="white"/>
</clipPath>
</defs>
</svg>
