<svg width="50" height="51" viewBox="0 0 50 51" fill="none" xmlns="http://www.w3.org/2000/svg">
<g id="deal 1">
<path id="Vector" d="M3.39665 39.3381C3.58891 39.3381 3.77736 39.2599 3.91393 39.1234C4.05087 38.9864 4.12907 38.798 4.12907 38.6057C4.12907 38.4123 4.05087 38.2239 3.91393 38.0869C3.77736 37.9515 3.58891 37.8733 3.39665 37.8733C3.20325 37.8733 3.0148 37.9515 2.87785 38.0869C2.74205 38.2239 2.66309 38.4123 2.66309 38.6057C2.66309 38.798 2.74205 38.9864 2.87785 39.1234C3.0148 39.2599 3.20325 39.3381 3.39665 39.3381Z" fill="url(#paint0_linear_1_146)"/>
<path id="Vector_2" d="M48.7793 20.8617H44.4286C43.7557 20.8617 43.2079 21.4091 43.2079 22.0824V22.4303H41.098C40.4247 22.4303 39.8773 22.9777 39.8773 23.651V25.1628H28.3978C27.7634 25.1628 27.1671 25.4107 26.7185 25.8605L26.4084 26.1714L26.3306 26.0936C25.8011 25.5626 24.8627 25.1613 24.1459 25.1601H10.1223V23.6506C10.1223 22.9777 9.57489 22.4299 8.9016 22.4299H6.79207V22.082C6.79207 21.4091 6.24428 20.8613 5.57137 20.8613H1.2207C0.547409 20.8613 0 21.4091 0 22.082V40.8931C0 41.566 0.547409 42.1138 1.2207 42.1138H5.57137C6.24428 42.1138 6.79207 41.5664 6.79207 40.8931V40.5452H8.90198C9.57489 40.5452 10.1227 39.9974 10.1227 39.3245V38.7332L11.0031 39.363C10.9459 40.0805 11.1835 40.8099 11.721 41.3493C12.1902 41.8197 12.8204 42.0791 13.496 42.0791C13.5136 42.0791 13.5311 42.0779 13.5487 42.0775C13.5345 42.7447 13.7753 43.41 14.275 43.9109C14.7438 44.3816 15.374 44.6406 16.0496 44.6406C16.0671 44.6406 16.0847 44.6395 16.1026 44.6395C16.0881 45.3063 16.3292 45.972 16.8282 46.4728C17.2974 46.9432 17.9276 47.2022 18.6031 47.2022C18.6207 47.2022 18.6382 47.2014 18.6558 47.2011C18.6417 47.8682 18.8828 48.5335 19.3821 49.0344C19.8509 49.5048 20.4811 49.7642 21.1567 49.7642C21.859 49.7642 22.5216 49.4872 23.0221 48.9852L23.1949 48.8116C23.6015 49.0504 24.0662 49.1782 24.5514 49.1782C25.2701 49.1782 25.9438 48.899 26.4488 48.3924L26.6708 48.17C27.0134 47.8259 27.243 47.4112 27.3609 46.9726C27.7447 47.1782 28.1765 47.2873 28.6255 47.2873C29.3438 47.2873 30.0179 47.008 30.5229 46.5014L30.7449 46.2787C31.0734 45.9495 31.2981 45.555 31.4201 45.1365C31.8443 45.4059 32.3372 45.5504 32.8537 45.5504C33.572 45.5504 34.2461 45.2716 34.7511 44.7646L34.9728 44.5422C35.3462 44.1676 35.5854 43.7095 35.6918 43.2269C36.0035 43.3509 36.3388 43.4161 36.6848 43.4161C37.4035 43.4161 38.0772 43.1369 38.5826 42.6303L38.8042 42.4079C39.7221 41.4874 39.8335 40.0596 39.1384 39.0159L39.8773 38.5989V39.3245C39.8773 39.9978 40.4247 40.5452 41.098 40.5452H43.2079V40.8935C43.2079 41.5664 43.7557 42.1142 44.4286 42.1142H48.7793C49.4526 42.1142 50 41.5664 50 40.8935V22.0824C50 21.4091 49.4526 20.8617 48.7793 20.8617ZM5.32722 40.6489H1.46484V22.3266H5.32722V40.6489ZM13.496 40.6142C13.2126 40.6142 12.9509 40.5078 12.7586 40.3151C12.3386 39.894 12.3608 39.1868 12.8078 38.7381L13.1321 38.4128C13.356 38.1884 13.6501 38.0645 13.9603 38.0645C14.2437 38.0645 14.5054 38.1709 14.6976 38.3635C15.1176 38.7847 15.0955 39.4919 14.6484 39.9402L14.3238 40.2659C14.1003 40.4906 13.8062 40.6142 13.496 40.6142ZM16.0496 43.1758C15.7661 43.1758 15.5045 43.0697 15.3122 42.8767C14.8922 42.456 14.9143 41.7483 15.3614 41.3001L15.686 40.9743C15.9096 40.75 16.2041 40.6264 16.5142 40.6264C16.7976 40.6264 17.0593 40.7325 17.2512 40.9247C17.6708 41.3463 17.6491 42.0535 17.202 42.5021L16.8774 42.8275C16.6538 43.0522 16.3597 43.1758 16.0496 43.1758ZM18.6031 45.7374C18.3197 45.7374 18.0576 45.6313 17.8658 45.4387C17.4461 45.0175 17.4679 44.3103 17.9146 43.8621C17.9146 43.8617 17.915 43.8617 17.915 43.8617L18.2396 43.5359C18.2396 43.5359 18.2396 43.5359 18.24 43.5355C18.4635 43.3112 18.7576 43.1876 19.0674 43.1876C19.3508 43.1876 19.6129 43.294 19.8048 43.4867C20.2248 43.9078 20.2026 44.6151 19.7556 45.0637L19.4309 45.3891C19.2074 45.6138 18.9133 45.7374 18.6031 45.7374ZM21.9845 47.951C21.7609 48.1753 21.4668 48.2993 21.1567 48.2993C20.8733 48.2993 20.6116 48.1933 20.4193 48.0002C19.9997 47.5791 20.0218 46.8718 20.4685 46.4236L20.7932 46.0978C21.0171 45.8732 21.3112 45.7496 21.6213 45.7496C21.9048 45.7496 22.1664 45.8556 22.3587 46.0486C22.7783 46.4698 22.7562 47.177 22.3095 47.6252L21.9845 47.951ZM37.767 41.3733L37.545 41.5961C37.3169 41.825 37.0113 41.9513 36.6848 41.9513C36.3586 41.9513 36.0531 41.825 35.825 41.5961L30.1014 35.8527C29.8157 35.5662 29.3518 35.5655 29.0653 35.8512C28.7788 36.1365 28.7781 36.6004 29.0638 36.8869L33.9355 41.7754C34.4116 42.2534 34.4116 43.0304 33.9355 43.508L33.7135 43.7304C33.4854 43.9597 33.1799 44.0856 32.8537 44.0856C32.5272 44.0856 32.2216 43.9597 31.9935 43.7304L26.3638 38.0832C26.0784 37.7967 25.6145 37.7959 25.3281 38.0816C25.0416 38.367 25.0408 38.8308 25.3265 39.1173L29.6829 43.4878L29.7073 43.5122C30.1834 43.9898 30.1834 44.7669 29.7073 45.2445L29.4857 45.4669C29.2572 45.6962 28.9516 45.822 28.6255 45.822C28.299 45.822 27.9934 45.6962 27.7653 45.4669L21.629 39.3111C21.3432 39.0246 20.8797 39.0239 20.5929 39.3092C20.3064 39.5949 20.306 40.0584 20.5914 40.3449L25.6332 45.4032C26.1093 45.8808 26.1093 46.6578 25.6332 47.1354L25.4116 47.3578C25.1831 47.5871 24.8775 47.713 24.5514 47.713C24.3561 47.713 24.1688 47.6672 24.0005 47.5818C24.2798 46.6964 24.0803 45.7007 23.3959 45.0141C22.9271 44.5437 22.2965 44.2847 21.6213 44.2847C21.6034 44.2847 21.5858 44.2855 21.5683 44.2859C21.5828 43.6187 21.3417 42.9534 20.8424 42.4525C20.3732 41.9818 19.743 41.7228 19.0674 41.7228C19.0498 41.7228 19.0323 41.7239 19.0147 41.7239C19.0289 41.0571 18.7881 40.3914 18.2888 39.8906C17.82 39.4202 17.1894 39.1612 16.5142 39.1612C16.4963 39.1612 16.4787 39.162 16.4612 39.1623C16.4757 38.4952 16.2346 37.8299 15.7352 37.329C15.266 36.8586 14.6358 36.5992 13.9603 36.5992C13.258 36.5992 12.5957 36.8758 12.0949 37.3786L11.7702 37.704C11.6909 37.7833 11.6184 37.8673 11.5513 37.9538L10.1227 36.9319V35.1905C10.1227 34.7861 9.79462 34.4581 9.39026 34.4581C8.98552 34.4581 8.65784 34.7861 8.65784 35.1905V39.0803H6.79207V23.8952H8.65784V31.6749C8.65784 32.0796 8.98552 32.4073 9.39026 32.4073C9.79462 32.4073 10.1227 32.0796 10.1227 31.6749V26.6253H24.1451C24.472 26.6257 25.0408 26.8744 25.2934 27.1277L25.3742 27.209L20.1782 32.4214C19.6331 32.9684 19.3249 33.6924 19.31 34.4603C19.2955 35.2374 19.5839 35.9626 20.1218 36.5024C20.6459 37.0276 21.3505 37.3172 22.1054 37.3172C22.8924 37.3172 23.6347 37.007 24.1955 36.444L25.9727 34.6614C26.6529 35.0528 27.4315 35.2637 28.2219 35.2637C29.4258 35.2637 30.5576 34.7937 31.4083 33.94L31.7463 33.6009L37.767 39.6411C38.2431 40.1187 38.2431 40.8957 37.767 41.3733ZM41.3422 39.0803V32.3584C41.3422 31.9541 41.0141 31.626 40.6097 31.626C40.2054 31.626 39.8773 31.9541 39.8773 32.3584V36.917L38.1123 37.9126L32.7805 32.5637L33.5747 31.7672C33.86 31.4807 33.8593 31.0168 33.5728 30.7315C33.2863 30.4458 32.8224 30.4465 32.5371 30.733L30.3707 32.9062C29.797 33.4819 29.0337 33.7993 28.2219 33.7993C27.5391 33.7993 26.8696 33.5662 26.3367 33.1427C26.0448 32.9108 25.6256 32.9352 25.3624 33.1988L23.1583 35.4102C22.8741 35.6952 22.5002 35.8523 22.1054 35.8523C21.7422 35.8523 21.4062 35.7158 21.159 35.4682C20.9042 35.2122 20.7676 34.8639 20.7745 34.4878C20.7821 34.1002 20.9389 33.7333 21.2158 33.4552L27.7561 26.8947C27.9274 26.7226 28.1555 26.6276 28.3978 26.6276H39.8773V28.8428C39.8773 29.2476 40.205 29.5752 40.6097 29.5752C41.0141 29.5752 41.3422 29.2476 41.3422 28.8428V23.8952H43.2079V39.0803H41.3422ZM48.5352 40.6489H44.6728V22.3266H48.5352V40.6489Z" fill="#2B7AF1"/>
<path id="Vector_3" d="M46.6047 39.3381C46.7969 39.3381 46.9854 39.2599 47.1223 39.1234C47.2581 38.9864 47.3359 38.798 47.3359 38.6057C47.3359 38.4123 47.2581 38.2239 47.1223 38.0869C46.9854 37.9515 46.7969 37.8733 46.6047 37.8733C46.4113 37.8733 46.2228 37.9515 46.0862 38.0869C45.9493 38.2239 45.8711 38.4123 45.8711 38.6057C45.8711 38.798 45.9493 38.9864 46.0862 39.1234C46.2228 39.2599 46.4113 39.3381 46.6047 39.3381Z" fill="url(#paint1_linear_1_146)"/>
<path id="Vector_4" d="M25.0002 24.0378C26.5104 24.0378 27.9909 23.6304 29.2818 22.8602C29.6289 22.6527 29.7426 22.2033 29.5354 21.8558C29.3279 21.5086 28.8786 21.395 28.531 21.6021C27.4671 22.2372 26.246 22.5729 25.0002 22.5729C21.1851 22.5729 18.0811 19.4582 18.0811 15.6294C18.0811 11.801 21.1851 8.68591 25.0002 8.68591C28.8152 8.68591 31.9193 11.801 31.9193 15.6294C31.9193 16.8867 31.5809 18.1181 30.9415 19.1904C30.734 19.5376 30.8477 19.9873 31.1952 20.1945C31.5427 20.4016 31.9921 20.2883 32.1992 19.9408C32.9744 18.6415 33.3841 17.1507 33.3841 15.6294C33.3841 10.993 29.6232 7.22107 25.0002 7.22107C20.3771 7.22107 16.6162 10.993 16.6162 15.6294C16.6162 20.2658 20.3771 24.0378 25.0002 24.0378Z" fill="#2B7AF1"/>
<path id="Vector_5" d="M22.4746 14.5221V13.7321C22.4746 13.3277 22.1469 12.9997 21.7422 12.9997C21.3378 12.9997 21.0098 13.3277 21.0098 13.7321V14.5221C21.0098 14.9269 21.3378 15.2545 21.7422 15.2545C22.1469 15.2545 22.4746 14.9269 22.4746 14.5221Z" fill="url(#paint2_linear_1_146)"/>
<path id="Vector_6" d="M28.9902 14.5221V13.7321C28.9902 13.3277 28.6626 12.9997 28.2578 12.9997C27.8535 12.9997 27.5254 13.3277 27.5254 13.7321V14.5221C27.5254 14.9269 27.8535 15.2545 28.2578 15.2545C28.6626 15.2545 28.9902 14.9269 28.9902 14.5221Z" fill="url(#paint3_linear_1_146)"/>
<path id="Vector_7" d="M24.9999 19.9991C26.7471 19.9991 28.1688 18.6941 28.1688 17.0901C28.1688 16.6857 27.8407 16.3576 27.4364 16.3576C27.032 16.3576 26.7039 16.6857 26.7039 17.0901C26.7039 17.8862 25.9395 18.5343 24.9999 18.5343C24.0604 18.5343 23.2959 17.8862 23.2959 17.0901C23.2959 16.6857 22.9678 16.3576 22.5635 16.3576C22.1587 16.3576 21.8311 16.6857 21.8311 17.0901C21.8311 18.6941 23.2524 19.9991 24.9999 19.9991Z" fill="url(#paint4_linear_1_146)"/>
<path id="Vector_8" d="M37.1982 11.3067C39.9551 11.3067 42.1974 9.05827 42.1974 6.29414C42.1974 5.54761 42.033 4.8396 41.7396 4.20255L42.3668 3.5735C42.6525 3.28702 42.6517 2.82315 42.3653 2.53743C42.0788 2.25209 41.6149 2.25285 41.3296 2.53934L40.9195 2.95056C40.0036 1.9267 38.6749 1.28125 37.1986 1.28125C34.4421 1.28125 32.1995 3.53001 32.1995 6.29376C32.1995 9.05789 34.4417 11.3067 37.1982 11.3067ZM37.1982 2.74609C38.2717 2.74609 39.2342 3.2298 39.883 3.99045L37.1982 6.68362L35.6384 5.11845C35.3531 4.83197 34.8892 4.83159 34.6027 5.11693C34.3162 5.40227 34.3155 5.86613 34.6008 6.15262L36.4727 8.03059C36.6665 8.22476 36.924 8.33157 37.1982 8.33157C37.4729 8.33157 37.7304 8.22476 37.9238 8.03059L40.6025 5.34314C40.6868 5.64603 40.7326 5.96494 40.7326 6.29414C40.7326 8.25032 39.1472 9.84181 37.1982 9.84181C35.2493 9.84181 33.6639 8.25032 33.6639 6.29414C33.6643 4.33797 35.2497 2.74609 37.1982 2.74609Z" fill="#2B7AF1"/>
<path id="Vector_9" d="M7.98264 11.2159L7.72401 12.7246C7.6397 13.2155 7.83768 13.7023 8.24052 13.9953C8.46406 14.1574 8.72803 14.2432 9.00422 14.2432C9.21403 14.2432 9.42307 14.1917 9.60885 14.0941L10.9638 13.3819L12.3184 14.0941C12.5042 14.1917 12.7132 14.2432 12.9231 14.2432C13.1989 14.2432 13.4632 14.1578 13.6868 13.9953C14.0896 13.7023 14.2876 13.2155 14.2037 12.7246L13.945 11.2162L15.041 10.1478C15.3977 9.80023 15.5235 9.28983 15.3694 8.81566C15.2157 8.34225 14.8136 8.00351 14.3208 7.93179L12.8059 7.71169L12.1288 6.33878C11.9083 5.89246 11.4616 5.61475 10.9638 5.61475C10.4656 5.61475 10.0193 5.89246 9.79882 6.33916L9.12133 7.71169L7.60651 7.93179C7.11365 8.00351 6.71197 8.34225 6.55785 8.81604C6.40412 9.28983 6.53 9.80023 6.88668 10.1478L7.98264 11.2159ZM9.71299 9.10596C9.95141 9.07124 10.1578 8.92133 10.2642 8.70503L10.9634 7.28825L11.6627 8.70503C11.7695 8.92133 11.9759 9.07124 12.2143 9.10596L13.7779 9.33293L12.6465 10.4358C12.4737 10.604 12.3951 10.8466 12.4359 11.0843L12.7029 12.6414L11.3045 11.9059C11.1977 11.8499 11.0806 11.822 10.9634 11.822C10.8467 11.822 10.7296 11.8499 10.6228 11.9059L9.22433 12.6414L9.49135 11.0843C9.53217 10.8466 9.45359 10.604 9.28078 10.4358L8.14934 9.33293L9.71299 9.10596Z" fill="url(#paint5_linear_1_146)"/>
</g>
<defs>
<linearGradient id="paint0_linear_1_146" x1="2.66309" y1="38.6057" x2="4.12935" y2="38.5998" gradientUnits="userSpaceOnUse">
<stop stop-color="#FF7A00"/>
<stop offset="1" stop-color="#FFB039"/>
</linearGradient>
<linearGradient id="paint1_linear_1_146" x1="45.8711" y1="38.6057" x2="47.3362" y2="38.5998" gradientUnits="userSpaceOnUse">
<stop stop-color="#FF7A00"/>
<stop offset="1" stop-color="#FFB039"/>
</linearGradient>
<linearGradient id="paint2_linear_1_146" x1="21.0098" y1="14.1271" x2="22.4749" y2="14.1233" gradientUnits="userSpaceOnUse">
<stop stop-color="#FF7A00"/>
<stop offset="1" stop-color="#FFB039"/>
</linearGradient>
<linearGradient id="paint3_linear_1_146" x1="27.5254" y1="14.1271" x2="28.9905" y2="14.1233" gradientUnits="userSpaceOnUse">
<stop stop-color="#FF7A00"/>
<stop offset="1" stop-color="#FFB039"/>
</linearGradient>
<linearGradient id="paint4_linear_1_146" x1="21.8311" y1="18.1784" x2="28.1698" y2="18.1339" gradientUnits="userSpaceOnUse">
<stop stop-color="#FF7A00"/>
<stop offset="1" stop-color="#FFB039"/>
</linearGradient>
<linearGradient id="paint5_linear_1_146" x1="6.49341" y1="9.92898" x2="15.4358" y2="9.89158" gradientUnits="userSpaceOnUse">
<stop stop-color="#FF7A00"/>
<stop offset="1" stop-color="#FFB039"/>
</linearGradient>
</defs>
</svg>
