<svg width="50" height="51" viewBox="0 0 50 51" fill="none" xmlns="http://www.w3.org/2000/svg">
<g id="home 1" clip-path="url(#clip0_4876_23)">
<g id="Group">
<g id="Group_2">
<path id="Vector" d="M48.2811 16.8758H47.8038L43.3291 4.82839C42.9373 3.7736 41.9182 3.06491 40.793 3.06491H9.20693C8.08184 3.06491 7.0626 3.7736 6.6708 4.82839L2.19619 16.8758H1.71895C0.771094 16.8758 0 17.6468 0 18.5947V19.9757C0 20.9236 0.771094 21.6947 1.71895 21.6947H1.97305V37.7484C1.97305 38.1529 2.30088 38.4808 2.70547 38.4808C3.11006 38.4808 3.43789 38.1529 3.43789 37.7484V21.6947H14.9379C15.5814 21.6947 16.1865 21.4441 16.6417 20.9889L25 12.6304L33.3585 20.9889C33.8136 21.444 34.4187 21.6946 35.0622 21.6946H46.5622V23.6364C46.5622 24.0409 46.89 24.3688 47.2946 24.3688C47.6992 24.3688 48.0271 24.0409 48.0271 23.6364V21.6946H48.2812C49.2289 21.6946 50.0001 20.9235 50.0001 19.9757V18.5946C50 17.6468 49.2289 16.8758 48.2811 16.8758ZM8.04395 5.33835C8.22363 4.85466 8.69102 4.52975 9.20693 4.52975H40.793C41.3089 4.52975 41.7763 4.85475 41.956 5.33835L46.2412 16.8758H36.0603L26.7037 7.51931C26.2486 7.06423 25.6437 6.81354 25 6.81354C24.3563 6.81354 23.7514 7.06413 23.2963 7.51931L13.9397 16.8758H3.75869L8.04395 5.33835ZM48.5352 19.9757C48.5352 20.1159 48.4212 20.2299 48.2811 20.2299H35.0622C34.8099 20.2299 34.5726 20.1316 34.3942 19.9532L25.5179 11.0768C25.3805 10.9394 25.1942 10.8623 24.9999 10.8623C24.8056 10.8623 24.6194 10.9394 24.4819 11.0768L15.6057 19.9532C15.4272 20.1316 15.1899 20.2299 14.9376 20.2299H1.71895C1.57881 20.2299 1.46484 20.1159 1.46484 19.9757V18.5947C1.46484 18.4546 1.57881 18.3406 1.71895 18.3406H14.2432C14.4374 18.3406 14.6236 18.2634 14.7611 18.126L24.3322 8.55505C24.5105 8.37663 24.7478 8.27839 25.0001 8.27839C25.2524 8.27839 25.4896 8.37663 25.668 8.55505L35.2391 18.126C35.3765 18.2634 35.5627 18.3406 35.757 18.3406H48.2812C48.4214 18.3406 48.5354 18.4546 48.5354 18.5947V19.9757H48.5352Z" fill="#2B7AF1"/>
<path id="Vector_2" d="M44.0393 42.0163C44.4438 42.0163 44.7717 41.6883 44.7717 41.2839V28.2623C44.7717 27.8578 44.4438 27.5298 44.0393 27.5298H34.1743C33.7697 27.5298 33.4419 27.8578 33.4419 28.2623V41.2839C33.4419 41.6883 33.7697 42.0163 34.1743 42.0163H44.0393ZM43.3068 37.3947H39.8392V33.9271H43.3068V37.3947ZM38.3743 37.3947H34.9067V33.9271H38.3743V37.3947ZM43.3068 40.5514H34.9067V38.8595H43.3068V40.5514ZM43.3068 32.4622H39.8392V28.9946H43.3068V32.4622ZM38.3743 28.9947V32.4623H34.9067V28.9947H38.3743Z" fill="#2B7AF1"/>
<path id="Vector_3" d="M15.8256 42.0163C16.2302 42.0163 16.5581 41.6883 16.5581 41.2839V28.2623C16.5581 27.8578 16.2302 27.5298 15.8256 27.5298H5.96069C5.5561 27.5298 5.22827 27.8578 5.22827 28.2623V41.2839C5.22827 41.6883 5.5561 42.0163 5.96069 42.0163H15.8256ZM15.0932 37.3947H11.6256V33.9271H15.0932V37.3947ZM10.1608 37.3947H6.69312V33.9271H10.1608V37.3947ZM15.0932 40.5514H6.69312V38.8595H15.0932V40.5514ZM15.0932 32.4622H11.6256V28.9946H15.0932V32.4622ZM10.1608 28.9947V32.4623H6.69312V28.9947H10.1608Z" fill="#2B7AF1"/>
<path id="Vector_4" d="M27.3675 30.6866H22.6323C22.2277 30.6866 21.8999 31.0145 21.8999 31.419V34.5758C21.8999 34.9803 22.2277 35.3082 22.6323 35.3082H27.3675C27.7721 35.3082 28.0999 34.9803 28.0999 34.5758V31.419C28.0999 31.0145 27.7721 30.6866 27.3675 30.6866ZM26.6351 33.8434H23.3647V32.1515H26.6351V33.8434Z" fill="url(#paint0_linear_4876_23)"/>
<path id="Vector_5" d="M28.8892 21.4555C28.8892 19.311 27.1445 17.5663 25 17.5663C22.8555 17.5663 21.1108 19.311 21.1108 21.4555C21.1108 23.5999 22.8555 25.3447 25 25.3447C27.1445 25.3447 28.8892 23.6 28.8892 21.4555ZM22.5757 21.4555C22.5757 20.1188 23.6633 19.0312 25 19.0312C26.3367 19.0312 27.4243 20.1188 27.4243 21.4555C27.4243 22.7922 26.3367 23.8799 25 23.8799C23.6633 23.8799 22.5757 22.7923 22.5757 21.4555Z" fill="url(#paint1_linear_4876_23)"/>
<path id="Vector_6" d="M49.2676 43.1162H48.0271V27.0625C48.0271 26.658 47.6992 26.3301 47.2946 26.3301C46.89 26.3301 46.5622 26.658 46.5622 27.0625V43.1162H31.2567V28.2622C31.2567 27.8577 30.9289 27.5298 30.5243 27.5298H19.4757C19.0711 27.5298 18.7433 27.8577 18.7433 28.2622V43.1162H3.43779V41.1744C3.43779 40.77 3.10996 40.442 2.70537 40.442C2.30078 40.442 1.97295 40.77 1.97295 41.1744V43.1162H0.732422C0.327832 43.1162 0 43.4442 0 43.8487V47.2028C0 47.6073 0.327832 47.9352 0.732422 47.9352H49.2676C49.6722 47.9352 50 47.6073 50 47.2028V43.8487C50 43.4442 49.6722 43.1162 49.2676 43.1162ZM20.2081 37.7743H21.2515C21.6561 37.7743 21.9839 37.4464 21.9839 37.0419C21.9839 36.6374 21.6561 36.3095 21.2515 36.3095H20.2081V28.9947H29.792V43.1162H20.2081V37.7743ZM48.5352 46.4703H1.46484V44.5811H48.5352V46.4703Z" fill="#2B7AF1"/>
</g>
</g>
</g>
<defs>
<linearGradient id="paint0_linear_4876_23" x1="21.8999" y1="32.9974" x2="28.101" y2="32.9638" gradientUnits="userSpaceOnUse">
<stop stop-color="#FF7A00"/>
<stop offset="1" stop-color="#FFB039"/>
</linearGradient>
<linearGradient id="paint1_linear_4876_23" x1="21.1108" y1="21.4555" x2="28.8906" y2="21.4241" gradientUnits="userSpaceOnUse">
<stop stop-color="#FF7A00"/>
<stop offset="1" stop-color="#FFB039"/>
</linearGradient>
<clipPath id="clip0_4876_23">
<rect width="50" height="50" fill="white" transform="translate(0 0.5)"/>
</clipPath>
</defs>
</svg>
