<svg width="60" height="60" viewBox="0 0 60 60" fill="none" xmlns="http://www.w3.org/2000/svg">
<g id="&#208;&#148;&#208;&#190;&#208;&#186;&#209;&#131;&#208;&#188;&#208;&#181;&#208;&#189;&#209;&#130;&#209;&#139;" clip-path="url(#clip0_1_242)">
<g id="XMLID 1619">
<g id="XMLID 1334">
<path id="XMLID 1729" d="M53.3203 0H17.6953C15.7568 0 14.1797 1.57711 14.1797 3.51562V7.60125C14.0483 7.65867 13.9252 7.73789 13.8198 7.84324L3.5073 18.1557C3.28348 18.3797 3.16723 18.6791 3.16688 18.9837C3.16594 18.9839 3.165 18.9841 3.16406 18.9845V56.4845C3.16406 58.423 4.74117 60.0001 6.67969 60.0001H42.3047C44.2432 60.0001 45.8203 58.423 45.8203 56.4845V52.5001H53.3203C55.2588 52.5001 56.8359 50.923 56.8359 48.9845V3.51562C56.8359 1.57711 55.2588 0 53.3203 0ZM35.4641 7.5H32.7564C32.1659 6.38602 30.9946 5.625 29.6484 5.625C27.7099 5.625 26.1328 7.20211 26.1328 9.14062V16.0494C26.1328 16.6965 26.6576 17.2213 27.3047 17.2213C27.9518 17.2213 28.4766 16.6965 28.4766 16.0494V9.14062C28.4766 8.49445 29.0023 7.96875 29.6484 7.96875C30.2946 7.96875 30.8203 8.49445 30.8203 9.14062V16.9869C30.8203 18.9254 29.2432 20.5025 27.3047 20.5025C25.3662 20.5025 23.7891 18.9254 23.7891 16.9869V8.20312C23.7891 4.97227 26.4176 2.34375 29.6484 2.34375C32.6413 2.34375 35.1155 4.59961 35.4641 7.5ZM17.6953 2.34375H23.9153C22.55 3.67992 21.6492 5.48707 21.4774 7.5H16.5234V3.51562C16.5234 2.86945 17.0491 2.34375 17.6953 2.34375ZM13.4766 11.5011V15.7617C13.4766 16.8925 12.5565 17.8125 11.4258 17.8125H7.1652L13.4766 11.5011ZM54.4922 48.9844C54.4922 49.6305 53.9665 50.1562 53.3203 50.1562H45.8203V27.4417C45.8203 26.7946 45.2955 26.2698 44.6484 26.2698C44.0013 26.2698 43.4766 26.7946 43.4766 27.4417V56.4844C43.4766 57.1305 42.9509 57.6562 42.3047 57.6562H6.67969C6.03352 57.6562 5.50781 57.1305 5.50781 56.4844V20.1562H11.4258C13.849 20.1562 15.8203 18.1849 15.8203 15.7617V9.84375H21.4453V16.9869C21.4453 20.2178 24.0738 22.8463 27.3047 22.8463C30.5355 22.8463 33.1641 20.2178 33.1641 16.9869V9.84375H42.3047C42.9509 9.84375 43.4766 10.3695 43.4766 11.0156V18.0667C43.4766 18.7138 44.0013 19.2386 44.6484 19.2386C45.2955 19.2386 45.8203 18.7138 45.8203 18.0667V11.0156C45.8203 9.07711 44.2432 7.5 42.3047 7.5H37.8193C37.6475 5.48707 36.7467 3.67992 35.3815 2.34375H53.3203C53.9665 2.34375 54.4922 2.86945 54.4922 3.51562V48.9844Z" fill="#2B79EF"/>
<path id="XMLID 1872" d="M12.4292 39.7856H36.5549C37.202 39.7856 37.7268 39.2608 37.7268 38.6137C37.7268 37.9666 37.202 37.4418 36.5549 37.4418H35.1636V32.8643C35.1636 32.2171 34.6388 31.6924 33.9917 31.6924H29.5386V28.9852C29.5386 28.3381 29.0138 27.8134 28.3667 27.8134H23.9136V25.8711C23.9136 25.224 23.3888 24.6992 22.7417 24.6992H17.1167C16.4696 24.6992 15.9448 25.224 15.9448 25.8711V37.4417H13.6011V25.8711C13.6011 25.224 13.0763 24.6992 12.4292 24.6992C11.7821 24.6992 11.2573 25.224 11.2573 25.8711V38.6136C11.2573 39.2608 11.7821 39.7856 12.4292 39.7856ZM32.8198 34.0361V37.4418H29.5386V34.0361H32.8198ZM27.1948 30.1572V32.8644V37.442H23.9136V30.1573H27.1948V30.1572ZM18.2886 27.0431H21.5698V28.9854V37.4418H18.2886V27.0431Z" fill="#2B7AF1"/>
<path id="XMLID 1875" d="M36.6176 47.8088H12.3672C11.7201 47.8088 11.1953 48.3336 11.1953 48.9807C11.1953 49.6278 11.7201 50.1526 12.3672 50.1526H36.6176C37.2647 50.1526 37.7895 49.6278 37.7895 48.9807C37.7895 48.3336 37.2647 47.8088 36.6176 47.8088Z" fill="url(#paint0_linear_1_242)"/>
<path id="XMLID 1876" d="M36.6174 43.1213H17.1167C16.4696 43.1213 15.9448 43.6461 15.9448 44.2932C15.9448 44.9403 16.4696 45.4651 17.1167 45.4651H36.6173C37.2644 45.4651 37.7892 44.9403 37.7892 44.2932C37.7892 43.6461 37.2645 43.1213 36.6174 43.1213Z" fill="url(#paint1_linear_1_242)"/>
<path id="XMLID 1877" d="M12.3667 45.4652C12.6749 45.4652 12.9772 45.3398 13.1951 45.1219C13.4131 44.9039 13.5386 44.6015 13.5386 44.2933C13.5386 43.9851 13.4132 43.6828 13.1951 43.4648C12.9772 43.247 12.6749 43.1215 12.3667 43.1215C12.0584 43.1215 11.756 43.2468 11.5382 43.4648C11.3202 43.6828 11.1948 43.9851 11.1948 44.2933C11.1948 44.6015 11.3201 44.9039 11.5382 45.1219C11.756 45.3397 12.0584 45.4652 12.3667 45.4652Z" fill="url(#paint2_linear_1_242)"/>
<path id="XMLID 1878" d="M36.6175 52.4963H12.3669C11.7198 52.4963 11.1951 53.0211 11.1951 53.6682C11.1951 54.3153 11.7198 54.8401 12.3669 54.8401H36.6175C37.2646 54.8401 37.7894 54.3153 37.7894 53.6682C37.7894 53.0211 37.2646 52.4963 36.6175 52.4963Z" fill="url(#paint3_linear_1_242)"/>
<path id="XMLID 1879" d="M44.6484 21.5824C44.3402 21.5824 44.0379 21.7078 43.8199 21.9258C43.602 22.1437 43.4766 22.4461 43.4766 22.7543C43.4766 23.0625 43.6018 23.3648 43.8199 23.5828C44.0379 23.8006 44.3402 23.9261 44.6484 23.9261C44.9566 23.9261 45.259 23.8008 45.4768 23.5828C45.6948 23.3648 45.8203 23.0625 45.8203 22.7543C45.8203 22.4461 45.6949 22.1437 45.4768 21.9258C45.259 21.7078 44.9566 21.5824 44.6484 21.5824Z" fill="url(#paint4_linear_1_242)"/>
</g>
</g>
</g>
<defs>
<linearGradient id="paint0_linear_1_242" x1="11.1953" y1="48.9807" x2="37.7392" y2="47.7653" gradientUnits="userSpaceOnUse">
<stop stop-color="#FF7A00"/>
<stop offset="1" stop-color="#FFB039"/>
</linearGradient>
<linearGradient id="paint1_linear_1_242" x1="15.9448" y1="44.2932" x2="37.7627" y2="43.4726" gradientUnits="userSpaceOnUse">
<stop stop-color="#FF7A00"/>
<stop offset="1" stop-color="#FFB039"/>
</linearGradient>
<linearGradient id="paint2_linear_1_242" x1="11.1948" y1="44.2933" x2="13.539" y2="44.2839" gradientUnits="userSpaceOnUse">
<stop stop-color="#FF7A00"/>
<stop offset="1" stop-color="#FFB039"/>
</linearGradient>
<linearGradient id="paint3_linear_1_242" x1="11.1951" y1="53.6682" x2="37.7391" y2="52.4528" gradientUnits="userSpaceOnUse">
<stop stop-color="#FF7A00"/>
<stop offset="1" stop-color="#FFB039"/>
</linearGradient>
<linearGradient id="paint4_linear_1_242" x1="43.4766" y1="22.7543" x2="45.8207" y2="22.7448" gradientUnits="userSpaceOnUse">
<stop stop-color="#FF7A00"/>
<stop offset="1" stop-color="#FFB039"/>
</linearGradient>
<clipPath id="clip0_1_242">
<rect width="60" height="60" fill="white"/>
</clipPath>
</defs>
</svg>
